<svg width="25" height="24" viewBox="0 0 25 24" fill="none" xmlns="http://www.w3.org/2000/svg">
<path d="M22.4235 0H1.97189C0.9922 0 0.200012 0.773438 0.200012 1.72969V22.2656C0.200012 23.2219 0.9922 24 1.97189 24H22.4235C23.4031 24 24.2 23.2219 24.2 22.2703V1.72969C24.2 0.773438 23.4031 0 22.4235 0ZM7.32032 20.4516H3.75782V8.99531H7.32032V20.4516ZM5.53907 7.43438C4.39532 7.43438 3.47189 6.51094 3.47189 5.37187C3.47189 4.23281 4.39532 3.30937 5.53907 3.30937C6.67814 3.30937 7.60157 4.23281 7.60157 5.37187C7.60157 6.50625 6.67814 7.43438 5.53907 7.43438ZM20.6516 20.4516H17.0938V14.8828C17.0938 13.5562 17.0703 11.8453 15.2422 11.8453C13.3906 11.8453 13.1094 13.2937 13.1094 14.7891V20.4516H9.55626V8.99531H12.9688V10.5609H13.0156C13.4891 9.66094 14.6516 8.70938 16.3813 8.70938C19.986 8.70938 20.6516 11.0813 20.6516 14.1656V20.4516Z" fill="#FAFAFA"/>
</svg>
