<svg width="25" height="24" viewBox="0 0 25 24" fill="none" xmlns="http://www.w3.org/2000/svg">
<path d="M12.8 2.16094C16.0062 2.16094 16.3859 2.175 17.6469 2.23125C18.8187 2.28281 19.4516 2.47969 19.8734 2.64375C20.4312 2.85938 20.8344 3.12188 21.2516 3.53906C21.6734 3.96094 21.9312 4.35938 22.1469 4.91719C22.3109 5.33906 22.5078 5.97656 22.5594 7.14375C22.6156 8.40937 22.6297 8.78906 22.6297 11.9906C22.6297 15.1969 22.6156 15.5766 22.5594 16.8375C22.5078 18.0094 22.3109 18.6422 22.1469 19.0641C21.9312 19.6219 21.6687 20.025 21.2516 20.4422C20.8297 20.8641 20.4312 21.1219 19.8734 21.3375C19.4516 21.5016 18.8141 21.6984 17.6469 21.75C16.3812 21.8062 16.0016 21.8203 12.8 21.8203C9.59374 21.8203 9.21405 21.8062 7.95311 21.75C6.78124 21.6984 6.14843 21.5016 5.72655 21.3375C5.16874 21.1219 4.76561 20.8594 4.34843 20.4422C3.92655 20.0203 3.66874 19.6219 3.45311 19.0641C3.28905 18.6422 3.09218 18.0047 3.04061 16.8375C2.98436 15.5719 2.9703 15.1922 2.9703 11.9906C2.9703 8.78438 2.98436 8.40469 3.04061 7.14375C3.09218 5.97187 3.28905 5.33906 3.45311 4.91719C3.66874 4.35938 3.93124 3.95625 4.34843 3.53906C4.7703 3.11719 5.16874 2.85938 5.72655 2.64375C6.14843 2.47969 6.78593 2.28281 7.95311 2.23125C9.21405 2.175 9.59374 2.16094 12.8 2.16094ZM12.8 0C9.54218 0 9.13436 0.0140625 7.85468 0.0703125C6.57968 0.126563 5.70311 0.332812 4.94374 0.628125C4.15155 0.9375 3.48124 1.34531 2.81561 2.01562C2.1453 2.68125 1.73749 3.35156 1.42811 4.13906C1.1328 4.90313 0.92655 5.775 0.8703 7.05C0.81405 8.33437 0.799988 8.74219 0.799988 12C0.799988 15.2578 0.81405 15.6656 0.8703 16.9453C0.92655 18.2203 1.1328 19.0969 1.42811 19.8563C1.73749 20.6484 2.1453 21.3188 2.81561 21.9844C3.48124 22.65 4.15155 23.0625 4.93905 23.3672C5.70311 23.6625 6.57499 23.8687 7.84999 23.925C9.12968 23.9812 9.53749 23.9953 12.7953 23.9953C16.0531 23.9953 16.4609 23.9812 17.7406 23.925C19.0156 23.8687 19.8922 23.6625 20.6516 23.3672C21.4391 23.0625 22.1094 22.65 22.775 21.9844C23.4406 21.3188 23.8531 20.6484 24.1578 19.8609C24.4531 19.0969 24.6594 18.225 24.7156 16.95C24.7719 15.6703 24.7859 15.2625 24.7859 12.0047C24.7859 8.74688 24.7719 8.33906 24.7156 7.05938C24.6594 5.78438 24.4531 4.90781 24.1578 4.14844C23.8625 3.35156 23.4547 2.68125 22.7844 2.01562C22.1187 1.35 21.4484 0.9375 20.6609 0.632812C19.8969 0.3375 19.025 0.13125 17.75 0.075C16.4656 0.0140625 16.0578 0 12.8 0Z" fill="#FAFAFA"/>
<path d="M12.8 5.83594C9.39686 5.83594 6.63593 8.59688 6.63593 12C6.63593 15.4031 9.39686 18.1641 12.8 18.1641C16.2031 18.1641 18.9641 15.4031 18.9641 12C18.9641 8.59688 16.2031 5.83594 12.8 5.83594ZM12.8 15.9984C10.5922 15.9984 8.80155 14.2078 8.80155 12C8.80155 9.79219 10.5922 8.00156 12.8 8.00156C15.0078 8.00156 16.7984 9.79219 16.7984 12C16.7984 14.2078 15.0078 15.9984 12.8 15.9984Z" fill="#FAFAFA"/>
<path d="M20.6469 5.59238C20.6469 6.38926 20 7.03145 19.2078 7.03145C18.4109 7.03145 17.7687 6.38457 17.7687 5.59238C17.7687 4.79551 18.4156 4.15332 19.2078 4.15332C20 4.15332 20.6469 4.8002 20.6469 5.59238Z" fill="#FAFAFA"/>
</svg>
