<svg width="24" height="23" viewBox="0 0 24 23" fill="none" xmlns="http://www.w3.org/2000/svg">
<path fill-rule="evenodd" clip-rule="evenodd" d="M16.0602 1.68499C15.8364 0.912295 14.6566 0.912295 14.4327 1.68499L14.1159 2.77946C13.4324 5.13761 12.4984 6.97964 9.96063 7.61459L8.78291 7.90931C7.95127 8.11732 7.95127 9.21361 8.78291 9.42163L9.96063 9.71635C12.4984 10.3513 13.4324 12.1933 14.1159 14.5515L14.4327 15.6459C14.6566 16.4186 15.8364 16.4186 16.0602 15.6459L16.3775 14.5515C17.0606 12.1933 17.995 10.3513 20.5327 9.71635L21.7104 9.42163C22.5421 9.21361 22.5421 8.11732 21.7104 7.90931C20.8788 7.70129 20.5327 7.61459 20.5327 7.61459C17.995 6.97964 17.0606 5.13761 16.3775 2.77946L16.0602 1.68499Z" fill="url(#paint0_linear_4801_30644)"/>
<path fill-rule="evenodd" clip-rule="evenodd" d="M6.28555 12.8075C6.15123 12.3246 5.44337 12.3246 5.30905 12.8075L5.11894 13.4916C4.70884 14.9654 4.14843 16.1167 2.62579 16.5135L1.91916 16.6977C1.42018 16.8277 1.42018 17.5129 1.91916 17.6429L2.62579 17.8271C4.14843 18.224 4.70884 19.3752 5.11894 20.8491L5.30905 21.5331C5.44337 22.016 6.15123 22.016 6.28555 21.5331L6.47591 20.8491C6.88576 19.3752 7.44641 18.224 8.96905 17.8271L9.67568 17.6429C10.1747 17.5129 10.1747 16.8277 9.67568 16.6977C9.17669 16.5677 8.96905 16.5135 8.96905 16.5135C7.44641 16.1167 6.88576 14.9654 6.47591 13.4916L6.28555 12.8075Z" fill="url(#paint1_linear_4801_30644)"/>
<defs>
<linearGradient id="paint0_linear_4801_30644" x1="15.1143" y1="16.0365" x2="22.3719" y2="1.52131" gradientUnits="userSpaceOnUse">
<stop stop-color="#FFCA64"/>
<stop offset="1" stop-color="#692BEF"/>
</linearGradient>
<linearGradient id="paint1_linear_4801_30644" x1="5.58956" y1="21.9332" x2="10.1256" y2="12.8611" gradientUnits="userSpaceOnUse">
<stop stop-color="#692BEF"/>
<stop offset="1" stop-color="#B495F7"/>
</linearGradient>
</defs>
</svg>
